# xmcd CD database file
#
# Track frame offsets:
#	150
#	14484
#	27686
#	40646
#	51118
#	63829
#	79170
#	94931
#	106560
#	118321
#	130751
#	150721
#	160419
#
# Disc length: 2279 seconds
#
# Revision: 0
# Processed by: cddbd v1.5.2PL0 Copyright (c) Steve Scherf et al.
# Submitted via: CDex 1.75
#
DISCID=a408e50d
DTITLE=Those Darlins - Those Darlins
DYEAR=2009
DGENRE=Country
TTITLE0=Red Light Love
TTITLE1=Wild One
TTITLE2=Mama's Heart
TTITLE3=Hung Up On Me
TTITLE4=The Whole Damn Thing
TTITLE5=Who's That Knocking At My Window
TTITLE6=Glass To You
TTITLE7=Snaggle Tooth Mama
TTITLE8=Cannonball Blues
TTITLE9=222
TTITLE10=DUI Or Die
TTITLE11=Keep My Skillet Good And Greasy
TTITLE12=Night Jogger
EXTD=YEAR: 2009
EXTT0=
EXTT1=
EXTT2=
EXTT3=
EXTT4=
EXTT5=
EXTT6=
EXTT7=
EXTT8=
EXTT9=
EXTT10=
EXTT11=
EXTT12=
PLAYORDER=
